<svg version="1.0" xmlns="http://www.w3.org/2000/svg"
 width="1960.000000pt" height="1812.000000pt" viewBox="0 0 1960.000000 1812.000000"
 preserveAspectRatio="xMidYMid meet">
<metadata>
Created by potrace 1.16, written by Peter Selinger 2001-2019
</metadata>
<g transform="translate(0.000000,1812.000000) scale(0.100000,-0.100000)"
fill="#000000" stroke="none">
<path d="M8520 16609 c-325 -28 -661 -103 -1060 -235 -251 -83 -422 -154 -685
-284 -358 -177 -578 -314 -1205 -748 -208 -144 -453 -339 -605 -481 -27 -25
-115 -105 -194 -176 -582 -523 -729 -674 -1162 -1200 -10 -11 -34 -40 -56 -65
-87 -103 -355 -443 -431 -547 -216 -297 -357 -534 -436 -737 -77 -194 -87
-358 -28 -472 92 -180 316 -282 792 -359 183 -30 278 -41 585 -70 88 -8 180
-17 205 -20 25 -2 101 -9 170 -15 285 -24 691 -73 875 -105 204 -36 287 -53
415 -87 83 -22 268 -83 315 -103 211 -92 276 -122 370 -171 245 -127 520 -311
791 -528 28 -23 66 -52 84 -66 112 -82 287 -255 377 -372 153 -199 363 -610
461 -905 172 -513 226 -1187 146 -1808 -9 -66 -17 -122 -19 -125 -2 -4 -34 -3
-72 1 -150 17 -373 20 -658 10 -165 -6 -439 -16 -610 -21 -327 -11 -372 -14
-555 -30 -108 -10 -166 -17 -335 -41 -312 -45 -701 -149 -1010 -270 -382 -149
-1284 -665 -1660 -948 -705 -532 -1327 -1264 -1589 -1871 -118 -273 -178 -506
-207 -794 -27 -276 37 -630 157 -870 163 -325 439 -490 939 -562 17 -2 119
-10 227 -16 248 -15 527 -1 735 37 392 73 815 253 1303 558 36 22 81 50 100
62 350 217 661 448 960 713 213 190 259 231 365 327 237 215 488 470 667 680
300 349 511 627 667 877 l71 115 188 88 c395 185 794 389 1137 583 79 45 469
242 478 242 3 0 45 18 94 40 48 23 97 45 108 50 192 86 342 158 710 343 488
244 725 352 1015 464 339 130 373 143 485 190 111 46 431 186 515 225 229 106
482 216 652 284 117 46 210 81 523 195 81 29 456 178 500 198 22 11 81 37 130
60 50 22 263 127 475 234 349 175 606 293 825 377 44 17 89 35 100 41 46 21
198 69 298 93 18 4 27 13 27 26 0 27 -14 32 -87 32 -53 0 -67 -3 -78 -20 -8
-11 -31 -23 -52 -27 -80 -15 -247 -77 -518 -193 -197 -84 -267 -118 -725 -346
-443 -221 -576 -279 -1025 -446 -165 -61 -328 -122 -362 -136 -164 -63 -206
-80 -318 -127 -66 -27 -167 -72 -224 -98 -57 -27 -105 -49 -107 -49 -2 0 -37
-16 -78 -35 -41 -19 -114 -52 -163 -74 -48 -21 -113 -50 -144 -65 -31 -14 -94
-41 -140 -60 -46 -18 -104 -43 -129 -53 -25 -11 -112 -46 -195 -77 -82 -31
-159 -61 -170 -66 -11 -5 -74 -30 -140 -55 -143 -55 -292 -117 -443 -187 -35
-16 -260 -126 -500 -246 -401 -200 -574 -283 -707 -342 -364 -161 -566 -263
-960 -484 -189 -107 -905 -460 -913 -451 -2 2 27 57 64 122 83 145 274 521
336 663 143 324 232 591 298 888 19 85 26 102 39 96 9 -3 43 -14 76 -24 33
-10 80 -26 105 -35 34 -13 65 -16 125 -12 88 5 139 25 199 77 41 36 46 37 46
7 0 -44 31 -128 58 -158 78 -85 306 -93 442 -15 169 97 494 458 718 798 53 81
100 147 104 147 4 1 17 -18 29 -40 28 -57 105 -136 154 -161 62 -32 133 -48
216 -48 91 0 161 19 217 60 135 97 370 474 545 875 152 347 393 939 442 1084
l27 83 30 -47 c141 -226 221 -502 234 -805 l6 -135 -34 -75 c-98 -212 -185
-596 -162 -717 5 -28 14 -38 40 -49 62 -26 200 -11 248 27 75 59 179 341 208
564 14 114 17 389 5 515 l-9 85 69 101 c37 55 87 127 111 160 218 298 374 513
407 561 99 143 284 441 362 583 116 210 209 382 263 488 35 67 65 120 67 118
19 -19 -140 -1116 -211 -1461 -22 -103 -93 -409 -165 -710 -108 -449 -107
-458 6 -491 64 -19 173 -15 199 7 18 15 20 20 135 306 148 369 292 669 402
833 102 153 227 323 233 317 2 -1 -2 -65 -8 -142 -5 -77 -8 -210 -6 -295 5
-179 21 -237 88 -313 58 -65 120 -89 237 -89 80 0 99 4 133 24 61 36 113 115
225 343 57 116 110 219 119 230 15 19 15 19 16 -15 1 -77 17 -113 70 -162 71
-66 127 -81 279 -77 104 4 122 7 176 33 152 75 338 333 554 769 35 71 65 126
67 124 3 -2 0 -17 -6 -33 -6 -16 -25 -78 -42 -139 -65 -238 -32 -325 126 -325
87 0 112 11 121 52 12 56 75 278 111 388 34 105 119 270 144 278 9 3 11 -2 6
-21 -31 -125 -30 -317 2 -384 25 -53 59 -74 145 -86 102 -15 204 1 253 38 76
58 164 218 233 421 41 122 68 260 57 289 -4 11 -16 15 -38 13 -37 -3 -34 3
-72 -160 -13 -60 -36 -132 -50 -160 -48 -102 -178 -280 -235 -323 l-24 -18 7
99 c3 54 9 178 13 274 7 193 0 237 -42 264 -55 36 -213 29 -257 -11 -13 -11
-18 -12 -18 -4 0 19 47 235 97 441 64 270 71 300 79 349 3 25 27 88 51 140
219 467 355 845 543 1501 110 386 124 430 240 780 143 430 203 687 204 875 l1
110 -44 85 c-95 186 -151 265 -210 298 -32 18 -55 22 -135 22 -138 0 -181 -21
-311 -153 -185 -187 -308 -375 -364 -557 -47 -154 -87 -527 -111 -1035 -18
-395 -62 -892 -100 -1135 -20 -128 -41 -368 -50 -570 -14 -288 -20 -334 -86
-610 -57 -236 -68 -283 -94 -405 -25 -113 -85 -251 -291 -665 -136 -273 -187
-358 -285 -485 -128 -165 -194 -226 -303 -282 l-45 -22 -23 21 c-34 32 -41 68
-48 258 -7 213 -19 298 -45 325 -16 15 -34 19 -92 20 -96 0 -124 -8 -132 -40
-8 -30 -76 -206 -135 -347 -63 -151 -261 -470 -331 -533 -26 -24 -37 -13 -55
56 -18 65 -20 339 -4 474 10 93 -1 264 -23 352 -16 64 -35 76 -132 81 -108 6
-145 -7 -194 -66 -112 -134 -377 -604 -528 -934 -27 -60 -52 -108 -55 -108 -5
0 5 49 71 330 78 332 133 632 180 970 16 124 33 239 35 255 8 44 53 398 70
555 13 118 23 215 64 625 8 79 10 83 137 305 163 284 221 407 379 805 232 583
262 680 305 986 21 144 21 159 7 188 -15 31 -15 31 16 55 18 13 46 32 62 42
17 10 32 21 35 24 6 6 49 36 135 95 33 23 103 71 155 108 209 145 546 368 735
486 195 123 399 259 501 336 29 22 65 49 80 60 15 11 56 43 90 70 34 28 79 64
100 80 63 49 273 234 360 317 47 45 90 78 101 78 28 0 38 16 53 78 9 41 10 56
1 65 -14 14 -155 22 -205 13 -26 -5 -48 -23 -97 -82 -121 -145 -467 -447 -764
-669 -161 -120 -354 -249 -680 -455 -134 -85 -450 -295 -555 -369 -404 -285
-357 -257 -446 -266 -165 -15 -339 -85 -440 -177 -55 -50 -89 -103 -119 -183
-10 -25 -28 -51 -39 -57 -12 -6 -106 -68 -211 -136 -416 -273 -534 -344 -856
-510 -261 -135 -549 -291 -804 -437 -114 -65 -464 -255 -470 -255 -1 0 -45
-20 -96 -44 -95 -44 -202 -91 -429 -186 -186 -78 -351 -151 -485 -215 -66 -32
-151 -72 -190 -90 -38 -18 -146 -70 -239 -114 -92 -45 -170 -81 -173 -81 -2 0
-37 -15 -76 -34 -123 -59 -383 -165 -602 -247 -269 -100 -396 -149 -605 -231
-118 -47 -237 -94 -264 -104 l-49 -18 -18 23 c-12 15 -19 39 -19 66 0 81 54
133 430 415 113 84 232 176 265 203 33 27 67 54 75 60 8 7 58 46 110 88 114
91 236 185 441 339 182 137 435 338 540 429 162 141 330 282 464 391 268 218
381 314 478 409 268 261 547 636 547 734 0 42 -64 101 -130 121 -267 79 -617
20 -1373 -235 -115 -39 -211 -69 -213 -66 -2 2 20 35 49 73 158 204 362 554
460 789 81 194 137 439 137 600 0 104 -31 279 -71 392 -98 283 -324 612 -519
754 -225 164 -549 271 -985 325 -146 18 -638 26 -785 13z m701 -60 c46 -5 100
-12 119 -14 36 -5 177 -30 215 -38 282 -65 464 -137 619 -244 253 -176 502
-547 589 -877 29 -111 31 -359 3 -491 -61 -296 -264 -701 -531 -1061 -133
-178 -187 -240 -218 -250 -19 -5 -63 -24 -272 -112 -86 -37 -322 -155 -413
-209 -103 -59 -304 -184 -312 -193 -3 -3 -41 -30 -85 -59 -80 -55 -329 -238
-374 -276 -70 -58 -184 -166 -223 -210 -117 -131 -218 -292 -218 -345 0 -32
50 -77 101 -90 26 -7 83 -10 139 -8 118 5 138 15 306 150 70 57 151 121 178
142 91 70 437 358 611 509 150 131 363 335 490 470 83 88 134 134 165 148 126
58 357 142 700 255 565 187 790 233 926 188 61 -21 112 -58 120 -88 12 -48
-47 -144 -215 -351 -197 -242 -411 -443 -820 -770 -62 -49 -219 -180 -349
-290 -266 -224 -469 -388 -647 -521 -66 -49 -126 -94 -135 -101 -8 -6 -80 -62
-160 -124 -473 -366 -883 -700 -953 -779 -64 -70 -93 -158 -71 -215 17 -44
118 -63 224 -41 71 15 400 121 635 204 610 217 970 367 1515 629 286 138 452
214 664 303 116 48 234 98 261 110 28 11 68 29 90 38 61 25 399 194 495 247
47 26 177 99 290 162 393 221 466 261 695 378 301 154 402 212 630 360 61 39
116 75 124 80 11 6 13 2 8 -21 -38 -175 -60 -366 -112 -989 -23 -270 -43 -489
-54 -590 -6 -49 -15 -144 -21 -210 -26 -296 -21 -279 -133 -490 -197 -375
-245 -462 -363 -670 -56 -99 -121 -211 -146 -250 -24 -38 -61 -99 -83 -133
-52 -83 -170 -250 -320 -453 -137 -184 -192 -261 -266 -371 -29 -43 -56 -78
-59 -78 -3 0 -13 30 -23 66 -59 228 -213 498 -399 703 -30 32 -31 38 -32 123
-1 86 -2 91 -30 115 -28 24 -35 25 -115 21 -100 -5 -159 -31 -193 -85 -32 -53
-19 -89 65 -186 40 -46 86 -100 101 -120 l28 -36 -32 -93 c-47 -135 -156 -414
-251 -638 -45 -107 -91 -220 -104 -250 -108 -269 -230 -522 -316 -657 -145
-227 -316 -426 -406 -471 l-41 -21 -36 39 c-68 75 -97 161 -122 351 -26 211
-21 242 76 444 98 203 200 445 207 491 14 87 -31 119 -158 112 -60 -4 -86 -10
-123 -32 -111 -65 -216 -261 -291 -543 -32 -120 -43 -320 -26 -462 13 -106 17
-96 -99 -271 -155 -234 -277 -387 -430 -540 -180 -181 -394 -340 -421 -313 -5
5 -13 43 -19 85 -13 93 6 282 46 445 30 123 27 119 151 287 184 250 282 442
338 663 50 195 26 232 -141 221 -90 -6 -124 -29 -193 -129 -241 -349 -452
-845 -487 -1144 -3 -33 -12 -71 -19 -85 -15 -28 -163 -175 -212 -209 l-33 -22
-77 30 c-43 17 -98 35 -123 41 -25 6 -58 16 -74 22 -26 11 -28 14 -22 52 75
507 74 1011 -5 1456 -80 454 -268 913 -527 1290 -158 230 -275 343 -617 599
-104 78 -197 147 -205 154 -8 7 -69 49 -135 93 -425 286 -898 491 -1353 585
-116 24 -455 79 -577 94 -218 27 -308 37 -550 59 -188 17 -326 30 -485 46 -58
6 -123 12 -145 14 -190 19 -475 65 -589 96 -232 64 -362 158 -412 298 -18 50
-17 167 2 258 39 189 153 428 336 704 63 96 124 185 134 197 11 12 46 59 79
104 119 164 461 587 685 848 190 221 422 458 660 671 52 47 178 162 280 255
281 258 443 395 595 502 39 27 95 67 125 88 567 401 864 587 1215 760 256 126
391 182 635 262 430 141 694 198 1005 217 97 6 436 -3 526 -15z m8574 -1615
c28 -31 55 -62 62 -69 39 -40 113 -149 128 -189 48 -126 -17 -448 -209 -1029
-119 -363 -128 -390 -166 -527 -29 -103 -87 -306 -140 -490 -81 -280 -363
-1030 -388 -1030 -7 0 6 279 18 375 42 318 53 410 70 565 21 191 43 479 60
805 33 648 67 929 131 1101 56 150 197 386 303 509 55 64 57 64 131 -21z
m-2795 -1374 c-13 -152 -39 -295 -76 -418 -29 -94 -284 -734 -371 -932 -73
-165 -229 -457 -239 -447 -2 1 5 102 16 223 11 120 27 311 35 424 31 403 69
687 120 893 14 54 25 100 25 102 0 2 37 26 83 53 122 73 211 128 312 193 49
32 94 54 98 50 5 -5 4 -68 -3 -141z m-5271 -313 c-186 -184 -353 -331 -774
-677 -111 -91 -292 -230 -340 -261 -22 -14 -66 -42 -97 -62 -61 -40 -88 -53
-88 -43 0 13 113 192 148 235 158 194 426 418 772 648 184 121 478 288 489
277 3 -2 -47 -55 -110 -117z m1114 -4579 c-12 -64 -90 -254 -100 -244 -7 6 75
244 90 264 15 19 17 15 10 -20z m-1007 -483 c-13 -85 -58 -220 -106 -320 -51
-104 -139 -249 -147 -241 -4 4 190 481 234 574 21 44 27 40 19 -13z m2430
-207 c-9 -56 -19 -104 -23 -107 -10 -9 4 140 18 194 20 77 23 26 5 -87z
m-4322 -1089 c144 -10 255 -25 263 -33 13 -13 -57 -327 -110 -502 -114 -367
-308 -801 -567 -1264 -163 -292 -170 -301 -274 -364 -133 -79 -252 -166 -332
-243 -73 -71 -174 -197 -174 -218 0 -17 41 -26 77 -19 20 5 42 26 78 76 28 38
81 98 119 134 76 71 192 157 205 152 20 -8 -298 -424 -550 -719 -260 -305
-927 -939 -1329 -1262 -134 -108 -483 -350 -715 -494 -443 -277 -844 -460
-1150 -523 -194 -41 -414 -55 -621 -41 -87 6 -172 13 -189 15 -400 60 -652
185 -813 403 -169 229 -246 498 -246 853 0 240 29 410 115 665 203 600 713
1275 1410 1866 265 225 469 369 789 558 96 57 216 127 265 157 436 258 792
429 1120 539 119 40 419 118 542 140 130 24 242 42 298 49 28 4 64 9 80 11
119 19 425 36 870 50 286 9 529 17 540 19 44 7 166 5 299 -5z"/>
<path d="M15804 11107 c-37 -39 -118 -154 -183 -257 -16 -25 -67 -105 -115
-177 -47 -73 -86 -140 -86 -150 0 -30 38 -82 64 -89 13 -3 34 -3 46 1 l21 7
-21 32 c-11 19 -20 40 -20 48 0 9 21 45 48 81 26 36 92 132 147 214 55 81 128
185 162 230 35 46 63 87 63 93 0 5 -20 10 -44 10 -38 0 -48 -5 -82 -43z"/>
<path d="M17080 9312 c-19 -11 -60 -32 -90 -49 -30 -16 -108 -58 -173 -92 -65
-35 -116 -68 -114 -75 2 -6 27 -12 55 -14 50 -3 63 3 250 102 242 130 231 123
212 136 -25 16 -103 11 -140 -8z"/>
</g>
</svg>
